<svg xmlns="http://www.w3.org/2000/svg" viewBox="0 0 8526 841" role="img" aria-label="BlockGrid"><title>BlockGrid</title><path transform="translate(1.0 781.0) scale(1 -1)" fill="#1f2328" d="M59 0V720H610.769775390625Q648.6803894042969 720 680.2725677490234 701.2431640625Q711.86474609375 682.486328125 730.9661865234375 650.6787719726562Q750.067626953125 618.8712158203125 750.067626953125 580.7021484375V440.10791015625Q750.067626953125 426.797119140625 747.946044921875 414.675537109375Q745.824462890625 402.553955078125 741.202880859375 391.932373046875Q758.37841796875 368.581298828125 768.689208984375 343.89208984375Q779 319.202880859375 779 294.202880859375V139.2978515625Q779 101.1287841796875 759.8985595703125 69.32122802734375Q740.797119140625 37.513671875 708.9895629882812 18.7568359375Q677.1820068359375 0 639.012939453125 0H59ZM203.122314453125 132.690673828125H633.499267578125Q638.471923828125 132.690673828125 642.0460205078125 136.2647705078125Q645.6201171875 139.8388671875 645.6201171875 144.8115234375V288Q645.6201171875 292.97265625 642.0460205078125 296.5467529296875Q638.471923828125 300.120849609375 633.499267578125 300.120849609375H203.122314453125Q198.149658203125 300.120849609375 194.5755615234375 296.5467529296875Q191.00146484375 292.97265625 191.00146484375 288V144.8115234375Q191.00146484375 139.8388671875 194.5755615234375 136.2647705078125Q198.149658203125 132.690673828125 203.122314453125 132.690673828125ZM203.122314453125 432.8115234375H604.56689453125Q609.53955078125 432.8115234375 612.958251953125 436.3856201171875Q616.376953125 439.959716796875 616.376953125 444.932373046875V575.1884765625Q616.376953125 580.1611328125 612.958251953125 583.7352294921875Q609.53955078125 587.309326171875 604.56689453125 587.309326171875H203.122314453125Q198.149658203125 587.309326171875 194.5755615234375 583.7352294921875Q191.00146484375 580.1611328125 191.00146484375 575.1884765625V444.932373046875Q191.00146484375 439.959716796875 194.5755615234375 436.3856201171875Q198.149658203125 432.8115234375 203.122314453125 432.8115234375Z"/><path transform="translate(1053.0 781.0) scale(1 -1)" fill="#1f2328" d="M57 0V721H189.00146484375V132.690673828125H777V0Z"/><path transform="translate(2052.0 781.0) scale(1 -1)" fill="#1f2328" d="M193.2978515625 0Q155.1287841796875 0 123.32122802734375 18.7568359375Q91.513671875 37.513671875 72.7568359375 69.32122802734375Q54 101.1287841796875 54 139.2978515625V580.7021484375Q54 618.8712158203125 72.7568359375 650.6787719726562Q91.513671875 682.486328125 123.32122802734375 701.2431640625Q155.1287841796875 720 193.2978515625 720H634.7021484375Q672.6127624511719 720 704.2049407958984 701.2431640625Q735.797119140625 682.486328125 754.8985595703125 650.6787719726562Q774 618.8712158203125 774 580.7021484375V139.2978515625Q774 101.1287841796875 754.8985595703125 69.32122802734375Q735.797119140625 37.513671875 704.2049407958984 18.7568359375Q672.6127624511719 0 634.7021484375 0ZM198.122314453125 132.690673828125H628.499267578125Q633.471923828125 132.690673828125 637.0460205078125 136.2647705078125Q640.6201171875 139.8388671875 640.6201171875 144.8115234375V575.1884765625Q640.6201171875 580.1611328125 637.0460205078125 583.7352294921875Q633.471923828125 587.309326171875 628.499267578125 587.309326171875H198.122314453125Q193.149658203125 587.309326171875 189.5755615234375 583.7352294921875Q186.00146484375 580.1611328125 186.00146484375 575.1884765625V144.8115234375Q186.00146484375 139.8388671875 189.5755615234375 136.2647705078125Q193.149658203125 132.690673828125 198.122314453125 132.690673828125Z"/><path transform="translate(3100.0 781.0) scale(1 -1)" fill="#1f2328" d="M195.2978515625 0Q156.7841796875 0 125.14892578125 18.7568359375Q93.513671875 37.513671875 74.7568359375 69.14892578125Q56 100.7841796875 56 139.2978515625V580.7021484375Q56 619.2158203125 74.7568359375 650.85107421875Q93.513671875 682.486328125 125.14892578125 701.2431640625Q156.7841796875 720 195.2978515625 720H774V587.309326171875H222.8662109375Q206.8662109375 587.309326171875 197.433837890625 578.2215576171875Q188.00146484375 569.1337890625 188.00146484375 552.444580078125V167.555419921875Q188.00146484375 151.555419921875 197.433837890625 142.123046875Q206.8662109375 132.690673828125 222.8662109375 132.690673828125H774V0Z"/><path transform="translate(4142.0 781.0) scale(1 -1)" fill="#1f2328" d="M57 0V720H190.00146484375V426.500732421875H359.283447265625L605.228759765625 720H749.202880859375V682.471923828125L478.528076171875 360L749.513671875 37.528076171875V0H605.228759765625L359.283447265625 293.499267578125H190.00146484375V0Z"/><path transform="translate(5159.0 781.0) scale(1 -1)" fill="#ff9f1c" d="M195.2978515625 0Q157.1287841796875 0 125.32122802734375 18.7568359375Q93.513671875 37.513671875 74.7568359375 69.32122802734375Q56 101.1287841796875 56 139.2978515625V580.7021484375Q56 618.8712158203125 74.7568359375 650.6787719726562Q93.513671875 682.486328125 125.32122802734375 701.2431640625Q157.1287841796875 720 195.2978515625 720H636.012939453125Q674.1820068359375 720 705.9895629882812 701.2431640625Q737.797119140625 682.486328125 756.8985595703125 650.6787719726562Q776 618.8712158203125 776 580.7021484375V524.822998046875H642.6201171875V575.1884765625Q642.6201171875 580.1611328125 639.0460205078125 583.7352294921875Q635.471923828125 587.309326171875 630.499267578125 587.309326171875H200.122314453125Q195.149658203125 587.309326171875 191.5755615234375 583.7352294921875Q188.00146484375 580.1611328125 188.00146484375 575.1884765625V144.8115234375Q188.00146484375 139.8388671875 191.5755615234375 136.2647705078125Q195.149658203125 132.690673828125 200.122314453125 132.690673828125H630.499267578125Q635.471923828125 132.690673828125 639.0460205078125 136.2647705078125Q642.6201171875 139.8388671875 642.6201171875 144.8115234375V274.56689453125H479.78271484375V407.568359375H776V139.2978515625Q776 101.1287841796875 756.8985595703125 69.32122802734375Q737.797119140625 37.513671875 705.9895629882812 18.7568359375Q674.1820068359375 0 636.012939453125 0Z"/><path transform="translate(6209.0 781.0) scale(1 -1)" fill="#ff9f1c" d="M630.228759765625 0 413.148193359375 258.634521484375H586.00146484375L773.7568359375 36.8388671875V0ZM56 0V719H636.012939453125Q674.1820068359375 719 705.9895629882812 700.0877685546875Q737.797119140625 681.175537109375 756.8985595703125 649.35107421875Q776 617.526611328125 776 579.7021484375V385.932373046875Q776 348.10791015625 756.8985595703125 316.283447265625Q737.797119140625 284.458984375 705.9895629882812 265.5467529296875Q674.1820068359375 246.634521484375 636.012939453125 246.634521484375L188.00146484375 245.9453125V0ZM200.122314453125 379.635986328125H630.499267578125Q635.471923828125 379.635986328125 639.0460205078125 383.0546875Q642.6201171875 386.473388671875 642.6201171875 391.446044921875V574.877685546875Q642.6201171875 579.850341796875 639.0460205078125 583.4244384765625Q635.471923828125 586.99853515625 630.499267578125 586.99853515625H200.122314453125Q195.149658203125 586.99853515625 191.5755615234375 583.4244384765625Q188.00146484375 579.850341796875 188.00146484375 574.877685546875V391.446044921875Q188.00146484375 386.473388671875 191.5755615234375 383.0546875Q195.149658203125 379.635986328125 200.122314453125 379.635986328125Z"/><path transform="translate(7254.0 781.0) scale(1 -1)" fill="#ff9f1c" d="M41.877685546875 0V720H172.8115234375V0Z"/><path transform="translate(7688.0 781.0) scale(1 -1)" fill="#ff9f1c" d="M58 0V720H638.012939453125Q676.1820068359375 720 707.9895629882812 701.2431640625Q739.797119140625 682.486328125 758.8985595703125 650.6787719726562Q778 618.8712158203125 778 580.7021484375V139.2978515625Q778 101.1287841796875 758.8985595703125 69.32122802734375Q739.797119140625 37.513671875 707.9895629882812 18.7568359375Q676.1820068359375 0 638.012939453125 0ZM201.43310546875 132.690673828125H632.499267578125Q637.471923828125 132.690673828125 641.0460205078125 136.2647705078125Q644.6201171875 139.8388671875 644.6201171875 144.8115234375V575.1884765625Q644.6201171875 580.1611328125 641.0460205078125 583.7352294921875Q637.471923828125 587.309326171875 632.499267578125 587.309326171875H201.43310546875Q196.46044921875 587.309326171875 192.8863525390625 583.7352294921875Q189.312255859375 580.1611328125 189.312255859375 575.1884765625V144.8115234375Q189.312255859375 139.8388671875 192.8863525390625 136.2647705078125Q196.46044921875 132.690673828125 201.43310546875 132.690673828125Z"/></svg>
